<svg width="24" height="24" viewBox="0 0 24 24" fill="none" xmlns="http://www.w3.org/2000/svg">
<mask id="path-1-inside-1_299_1685" fill="white">
<path fill-rule="evenodd" clip-rule="evenodd" d="M16 0H8V8L0 8V16H8V24H16V16H24V8L16 8V0Z"/>
</mask>
<path d="M8 0V-1H7V0H8ZM16 0H17V-1H16V0ZM8 8V9L9 9V8H8ZM0 8L5.96046e-08 7H-1V8H0ZM0 16H-1V17H0V16ZM8 16H9V15H8V16ZM8 24H7V25H8V24ZM16 24V25H17V24H16ZM16 16V15H15V16H16ZM24 16V17H25V16H24ZM24 8H25V7H24V8ZM16 8H15V9H16V8ZM8 1H16V-1H8V1ZM9 8V0H7V8H9ZM-5.96046e-08 9H8V7L5.96046e-08 7L-5.96046e-08 9ZM1 16V8H-1V16H1ZM8 15H0V17H8V15ZM9 24V16H7V24H9ZM16 23H8V25H16V23ZM15 16V24H17V16H15ZM24 15H16V17H24V15ZM23 8V16H25V8H23ZM16 9L24 9V7L16 7V9ZM15 0V8H17V0H15Z" fill="white" mask="url(#path-1-inside-1_299_1685)"/>
</svg>
